<svg width="288" height="288" viewBox="0 0 288 288" fill="none" xmlns="http://www.w3.org/2000/svg">
<g opacity="0.8">
<path fill-rule="evenodd" clip-rule="evenodd" d="M199.775 169.404C212.863 164.398 224.192 155.371 231.585 142.825C249.695 112.093 237.332 71.8822 203.972 53.0118C170.613 34.1413 128.888 43.7569 110.779 74.4889C109.019 77.4751 107.547 80.5508 106.354 83.6877C80.9047 81.5399 55.1861 93.742 41.4728 117.013C22.6418 148.969 33.5796 189.697 65.9032 207.982C76.0681 213.732 87.1376 216.577 98.123 216.783C100.377 233.988 110.445 249.951 126.869 259.242C154.948 275.124 190.97 265.497 207.328 237.738C220.649 215.132 216.82 187.472 199.775 169.404Z" fill="url(#paint0_linear_4340_10906)"/>
<path fill-rule="evenodd" clip-rule="evenodd" d="M199.775 169.404C212.863 164.398 224.192 155.371 231.585 142.825C249.695 112.093 237.332 71.8822 203.972 53.0118C170.613 34.1413 128.888 43.7569 110.779 74.4889C109.019 77.4751 107.547 80.5508 106.354 83.6877C80.9047 81.5399 55.1861 93.742 41.4728 117.013C22.6418 148.969 33.5796 189.697 65.9032 207.982C76.0681 213.732 87.1376 216.577 98.123 216.783C100.377 233.988 110.445 249.951 126.869 259.242C154.948 275.124 190.97 265.497 207.328 237.738C220.649 215.132 216.82 187.472 199.775 169.404Z" fill="url(#paint1_linear_4340_10906)" fill-opacity="0.8"/>
</g>
<path d="M208.822 108.746C208.811 108.695 208.786 108.648 208.75 108.61C208.714 108.573 208.667 108.547 208.617 108.535C205.236 107.708 197.426 110.654 193.191 114.887C192.436 115.635 191.748 116.448 191.134 117.316C189.828 117.198 188.523 117.298 187.411 117.782C184.272 119.163 183.359 122.767 183.104 124.315C183.09 124.399 183.096 124.486 183.121 124.568C183.146 124.65 183.19 124.726 183.249 124.788C183.308 124.851 183.38 124.899 183.461 124.929C183.541 124.959 183.628 124.97 183.713 124.961L188.753 124.408C188.757 124.788 188.78 125.168 188.822 125.545C188.848 125.807 188.964 126.05 189.151 126.235L191.103 128.186C191.287 128.373 191.531 128.49 191.793 128.516C192.168 128.558 192.546 128.581 192.923 128.584L192.371 133.62C192.362 133.705 192.373 133.791 192.403 133.872C192.433 133.952 192.481 134.025 192.544 134.083C192.606 134.142 192.681 134.186 192.763 134.211C192.845 134.236 192.932 134.242 193.017 134.229C194.565 133.98 198.177 133.067 199.549 129.928C200.034 128.816 200.133 127.517 200.021 126.217C200.892 125.604 201.707 124.916 202.458 124.16C206.709 119.933 209.636 112.295 208.822 108.746ZM198.679 118.684C198.308 118.313 198.055 117.84 197.952 117.325C197.85 116.81 197.902 116.276 198.103 115.791C198.304 115.306 198.644 114.891 199.081 114.599C199.518 114.308 200.031 114.152 200.556 114.152C201.081 114.152 201.594 114.308 202.031 114.599C202.467 114.891 202.808 115.306 203.009 115.791C203.209 116.276 203.262 116.81 203.159 117.325C203.057 117.84 202.804 118.313 202.433 118.684C202.187 118.931 201.894 119.127 201.572 119.26C201.25 119.394 200.905 119.462 200.556 119.462C200.207 119.462 199.862 119.394 199.54 119.26C199.218 119.127 198.925 118.931 198.679 118.684V118.684Z" stroke="white" stroke-linecap="round" stroke-linejoin="round"/>
<path d="M186.928 127.285C186.308 127.361 185.732 127.642 185.29 128.083C184.195 129.182 184.091 133.253 184.091 133.253C184.091 133.253 188.164 133.149 189.26 132.052C189.703 131.611 189.985 131.034 190.059 130.413" stroke="white" stroke-linecap="round" stroke-linejoin="round"/>
<path d="M38.165 177.359C-14.6354 212.56 65.7004 216.408 114.672 185.441C151.309 162.273 178.427 137.489 180.403 134.795" stroke="url(#paint2_linear_4340_10906)" stroke-width="0.5"/>
<defs>
<linearGradient id="paint0_linear_4340_10906" x1="232.103" y1="197.264" x2="84.7304" y2="73.7285" gradientUnits="userSpaceOnUse">
<stop stop-color="#0000F5"/>
<stop offset="0.650813" stop-color="#D63EE1"/>
<stop offset="1" stop-color="#DD6B20"/>
</linearGradient>
<linearGradient id="paint1_linear_4340_10906" x1="221.397" y1="227.099" x2="60.3941" y2="91.8227" gradientUnits="userSpaceOnUse">
<stop stop-opacity="0.9"/>
<stop offset="0.334429"/>
<stop offset="1" stop-opacity="0"/>
</linearGradient>
<linearGradient id="paint2_linear_4340_10906" x1="22.5404" y1="182.747" x2="182.558" y2="138.567" gradientUnits="userSpaceOnUse">
<stop stop-color="white" stop-opacity="0.5"/>
<stop offset="0.483595" stop-color="white" stop-opacity="0.516405"/>
<stop offset="1" stop-color="white" stop-opacity="0"/>
</linearGradient>
</defs>
</svg>
